<?xml version="1.0" encoding="utf-8"?>
<!-- Generator: Adobe Illustrator 27.2.0, SVG Export Plug-In . SVG Version: 6.00 Build 0)  -->
<svg version="1.1" id="Layer_1" xmlns="http://www.w3.org/2000/svg" xmlns:xlink="http://www.w3.org/1999/xlink" x="0px" y="0px"
	 viewBox="0 0 126 25" style="enable-background:new 0 0 126 25;" xml:space="preserve">
<style type="text/css">
	.st0{display:none;fill-rule:evenodd;clip-rule:evenodd;fill:#FFFFFF;}
	.st1{fill:#FFFFFF;}
</style>
<path id="Peel" class="st0" d="M31.9,24h4.6v-9.5h5.6c4.6,0,7.8-3.2,7.8-7.2s-3.2-7.2-7.6-7.2H31.9V24z M36.5,10.7V3.9h5.3
	c2.6,0,3.8,1.4,3.8,3.4s-1.5,3.4-4.1,3.4C41.5,10.7,36.5,10.7,36.5,10.7z M59.5,6.4c-5.2,0-8.9,4-8.9,9c0,5.1,3.7,9,8.9,9
	c4.2,0,7.5-2.3,8.5-6h-4.5c-0.7,1.6-1.9,2.4-3.9,2.4c-2.5,0-4.2-1.8-4.7-4.2h13.2C68.4,10.5,65,6.4,59.5,6.4z M55.1,13.6
	c0.4-2.3,2.2-3.8,4.3-3.8c2,0,4.1,1.2,4.4,3.8H55.1z M78.4,6.4c-5.2,0-8.9,4-8.9,9c0,5.1,3.7,9,8.9,9c4.2,0,7.5-2.3,8.5-6h-4.4
	c-0.7,1.6-1.9,2.4-3.9,2.4c-2.5,0-4.2-1.8-4.7-4.2h13.2C87.3,10.5,83.9,6.4,78.4,6.4z M74,13.6c0.4-2.3,2.2-3.8,4.3-3.8
	c2,0,4.1,1.2,4.4,3.8H74z M94.2,0.2h-4.4V24h4.4V0.2z"/>
<path class="st1" d="M34.1,15.2c0,0.6-0.2,1.1-0.5,1.6s-0.8,0.9-1.5,1.2c-0.7,0.3-1.5,0.4-2.4,0.4c-1.4,0-2.5-0.3-3.4-0.9
	c-0.4-0.3-0.7-0.6-0.9-0.9c-0.2-0.3-0.3-0.7-0.3-1.1c0-0.1,0-0.2,0-0.4c0-0.6,0.1-1.2,0.4-1.6c0.3-0.4,0.8-0.8,1.4-1.1
	c0.7-0.3,1.5-0.6,2.7-0.8c0.9-0.2,1.5-0.4,2-0.6c0.5-0.2,0.8-0.5,1-0.8s0.3-0.7,0.3-1.2c0-0.7-0.3-1.2-0.9-1.6
	c-0.6-0.4-1.4-0.6-2.4-0.6c-1.1,0-2,0.3-2.6,0.8c-0.3,0.2-0.5,0.6-0.6,1c-0.1,0.2-0.1,0.4-0.1,0.6c0,0.2,0,0.3,0,0.5s0,1.6,0,1.8
	c-0.1,0.6-0.4,0.9-0.9,0.8c0.1-0.4,0.1-0.6,0.1-0.9c0-0.1,0-0.2,0-0.3v0.1c0-0.1,0-0.2,0-0.3l0,0c0-0.3,0-0.6,0-0.9c0-0.3,0-0.7,0-1
	l0,0l0,0c0-0.5,0.2-1,0.5-1.5c0.4-0.4,0.9-0.8,1.5-1c0.6-0.3,1.3-0.4,2.1-0.4c1.3,0,2.4,0.3,3.1,0.8c0.8,0.6,1.1,1.3,1.1,2.3
	c0,0.9-0.3,1.6-1,2.1c-0.6,0.5-1.7,0.9-3.1,1.2c-1,0.2-1.7,0.4-2.3,0.6c-0.5,0.2-0.9,0.5-1.2,0.8c-0.2,0.3-0.3,0.7-0.3,1.2
	c0,0.8,0.3,1.4,1,1.8s1.5,0.7,2.7,0.7s2.2-0.3,2.8-0.8c0.6-0.5,0.8-1.4,0.8-2.6C33.7,14.2,34.1,14.6,34.1,15.2z"/>
<path class="st1" d="M41.8,19.3c0,0.6-0.2,1.1-0.5,1.6s-0.8,0.9-1.5,1.2c-0.7,0.3-1.5,0.4-2.4,0.4c-1.4,0-2.5-0.3-3.4-0.9
	c-0.4-0.3-0.7-0.6-0.9-0.9s-0.3-0.7-0.3-1.1c0-0.1,0-0.2,0-0.4c0-0.6,0.1-1.2,0.4-1.6c0.3-0.4,0.8-0.8,1.4-1.1
	c0.7-0.3,1.5-0.6,2.7-0.8c0.9-0.2,1.5-0.4,2-0.6s0.8-0.5,1-0.8s0.3-0.7,0.3-1.2c0-0.7-0.3-1.2-0.9-1.6c-0.6-0.4-1.4-0.6-2.4-0.6
	c-1.1,0-2,0.3-2.6,0.8c-0.3,0.2-0.5,0.6-0.6,1C34,12.9,34,13.1,34,13.3c0,0.2,0,0.3,0,0.5s0,0.7,0,1c0,0.1,0,0.3,0,0.3l0,0
	c0,0,0,0,0,0.1l0,0c0,0.1,0,0.3-0.1,0.4c-0.1,0.6-0.4,0.9-0.9,0.8c0.1-0.4,0.1-0.6,0.1-0.9c0-0.1,0-0.2,0-0.3v0.1c0-0.1,0-0.2,0-0.3
	l0,0c0-0.3,0-0.6,0-0.9c0-0.3,0-0.7,0-1l0,0l0,0c0-0.5,0.2-1,0.5-1.5c0.4-0.4,0.9-0.8,1.5-1c0.6-0.3,1.3-0.4,2.1-0.4
	c1.3,0,2.4,0.3,3.1,0.8c0.8,0.6,1.1,1.3,1.1,2.3c0,0.9-0.3,1.6-1,2.1c-0.6,0.5-1.7,0.9-3.1,1.2c-1,0.2-1.7,0.4-2.3,0.6
	c-0.5,0.2-0.9,0.5-1.2,0.8c-0.2,0.3-0.3,0.7-0.3,1.2c0,0.8,0.3,1.4,1,1.8s1.5,0.7,2.7,0.7s2.2-0.3,2.8-0.8s0.9-1.4,0.9-2.6
	C41.5,18.3,41.8,18.6,41.8,19.3z"/>
<path class="st1" d="M26.3,11.3c0,0.6-0.2,1.1-0.5,1.6s-0.8,0.9-1.5,1.2s-1.5,0.4-2.4,0.4c-1.4,0-2.5-0.3-3.4-0.9
	c-0.4-0.3-0.7-0.6-0.9-0.9c-0.2-0.3-0.3-0.7-0.3-1.1c0-0.1,0-0.2,0-0.4c0-0.6,0.1-1.2,0.4-1.6c0.3-0.4,0.8-0.8,1.4-1.1
	c0.2-0.1,0.5-0.2,0.9-0.3c0.5-0.2,1.1-0.3,1.8-0.5c0.1,0,0.2,0,0.3-0.1c0.7-0.2,1.3-0.3,1.7-0.5c0.5-0.2,0.8-0.5,1-0.8V6.2l0,0
	c0-0.1,0.1-0.2,0.1-0.2V5.9C25,5.7,25,5.5,25,5.3s0-0.3,0-0.5s0-0.7,0-1C25,3.7,25,3,25,3c0.1-0.6,0.4-0.9,0.9-0.8
	c-0.1,0.4-0.1,0.6-0.1,0.9c0,0.1,0,0.2,0,0.3V3.3c0,0.1,0,0.2,0,0.3l0,0c0,0.3,0,0.6,0,0.9s0,0.7,0,1l0,0l0,0c0,0.5-0.2,1-0.5,1.5
	c-0.4,0.4-0.9,0.8-1.5,1c-0.4,0.2-0.9,0.3-1.3,0.3c-0.2,0.1-0.5,0.1-0.7,0.2c-1,0.2-1.7,0.4-2.3,0.6c-0.5,0.2-0.9,0.5-1.2,0.8
	c-0.2,0.3-0.3,0.7-0.3,1.2c0,0.8,0.3,1.4,1,1.8c0.7,0.4,1.5,0.7,2.7,0.7s2.2-0.3,2.8-0.8c0.6-0.5,0.8-1.4,0.8-2.6
	C26,10.3,26.3,10.6,26.3,11.3z"/>
<path class="st1" d="M25,6c0,0.1-0.1,0.2-0.1,0.2C24.9,6.2,25,6.1,25,6z"/>
</svg>
